HIERARCHY
ROOT Hips
{
	OFFSET 0.000000 0.000000 0.000000
	CHANNELS 6 Xposition Yposition Zposition Zrotation Yrotation Xrotation 
	JOINT LowerBack
	{
		OFFSET 0.000000 0.000000 0.000000
		CHANNELS 3 Zrotation Yrotation Xrotation
		JOINT Spine
		{
			OFFSET 0.028270 2.035590 -0.193380
			CHANNELS 3 Zrotation Yrotation Xrotation
			JOINT Spine1
			{
				OFFSET 0.056720 2.048850 -0.042750
				CHANNELS 3 Zrotation Yrotation Xrotation
				JOINT Neck
				{
					OFFSET 0.000000 0.000000 0.000000
					CHANNELS 3 Zrotation Yrotation Xrotation
					JOINT Neck1
					{
						OFFSET -0.054170 1.746240 0.172020
						CHANNELS 3 Zrotation Yrotation Xrotation
						JOINT Head
						{
							OFFSET 0.104070 1.761360 -0.123970
							CHANNELS 3 Zrotation Yrotation Xrotation
							End Site
							{
								OFFSET 0.000000 0.000000 0.000000
							}
						}
					}
				}
				JOINT LeftShoulder
				{
					OFFSET 0.000000 0.000000 0.000000
					CHANNELS 3 Zrotation Yrotation Xrotation
					JOINT LeftArm
					{
						OFFSET 3.362410 1.200890 -0.311210
						CHANNELS 3 Zrotation Yrotation Xrotation
						JOINT LeftForeArm
						{
							OFFSET 4.983000 -0.000000 -0.000000
							CHANNELS 3 Zrotation Yrotation Xrotation
							JOINT LeftHand
							{
								OFFSET 3.483560 -0.000000 -0.000000
								CHANNELS 3 Zrotation Yrotation Xrotation
								JOINT LeftFingerBase
								{
									OFFSET 0.000000 0.000000 0.000000
									CHANNELS 3 Zrotation Yrotation Xrotation
									JOINT LeftHandIndex1
									{
										OFFSET 0.715260 -0.000000 -0.000000
										CHANNELS 3 Zrotation Yrotation Xrotation
										End Site
										{
											OFFSET 0.000000 0.000000 0.000000
										}
									}
								}
								JOINT LThumb
								{
									OFFSET 0.000000 0.000000 0.000000
									CHANNELS 3 Zrotation Yrotation Xrotation
									End Site
									{
										OFFSET 0.000000 0.000000 0.000000
									}
								}
							}
						}
					}
				}
				JOINT RightShoulder
				{
					OFFSET 0.000000 0.000000 0.000000
					CHANNELS 3 Zrotation Yrotation Xrotation
					JOINT RightArm
					{
						OFFSET -3.136600 1.374050 -0.404650
						CHANNELS 3 Zrotation Yrotation Xrotation
						JOINT RightForeArm
						{
							OFFSET -5.241900 -0.000000 -0.000000
							CHANNELS 3 Zrotation Yrotation Xrotation
							JOINT RightHand
							{
								OFFSET -3.444170 -0.000000 -0.000000
								CHANNELS 3 Zrotation Yrotation Xrotation
								JOINT RightFingerBase
								{
									OFFSET 0.000000 0.000000 0.000000
									CHANNELS 3 Zrotation Yrotation Xrotation
									JOINT RightHandIndex1
									{
										OFFSET -0.622530 -0.000000 -0.000000
										CHANNELS 3 Zrotation Yrotation Xrotation
										End Site
										{
											OFFSET 0.000000 0.000000 0.000000
										}
									}
								}
								JOINT RThumb
								{
									OFFSET 0.000000 0.000000 0.000000
									CHANNELS 3 Zrotation Yrotation Xrotation
									End Site
									{
										OFFSET 0.000000 0.000000 0.000000
									}
								}
							}
						}
					}
				}
			}
		}
	}
}
}
MOTION
Frames: 18
Frame Time: 0.008333
-21.652433 16.898888 -0.211239 33.377717 85.000906 47.822475 -5.153925 -0.105545 -6.406284 -1.431936 0.037537 -3.608914 -4.862763 -0.128775 2.823014 10.175198 -12.475126 -12.529872 -1.474364 -0.051929 -1.292983 0.000000 0.000000 0.000000 -2.993075 24.012104 2.036916 -75.450310 31.336768 4.048421 -4.158774 -22.646791 -0.021530 -5.829620 4.762340 -0.246698 -0.080854 -0.140515 -0.000000 0.000000 0.000000 0.000000 0.000000 0.000000 0.000000 10.154778 -7.031783 1.460482 51.572734 12.129559 -1.914405 3.415359 31.111293 0.018808 1.939596 5.632191 0.092632 0.123569 -0.143213 -0.000000 0.000000 0.000000 0.000000 0.000000 0.000000 0.000000 
-21.446810 16.921523 -0.219928 30.131994 84.756024 44.323766 -5.284495 0.010165 -6.422640 -1.467003 0.163506 -3.609211 -4.870795 -0.002318 2.829746 10.224415 -12.479204 -12.514601 -1.448948 -0.050112 -1.288048 0.000000 0.000000 0.000000 -2.963433 24.177597 2.014160 -75.351254 31.375797 3.338023 -4.221628 -22.116873 -0.022331 -5.937935 4.922491 -0.259510 -0.083436 -0.141234 -0.000000 0.000000 0.000000 0.000000 0.000000 0.000000 0.000000 10.095356 -6.977777 1.463187 51.460244 11.596139 -1.615479 3.440458 31.030226 0.019054 2.200321 5.559009 0.104431 0.122593 -0.139372 -0.000000 0.000000 0.000000 0.000000 0.000000 0.000000 0.000000 
-21.240278 16.941386 -0.229821 26.822682 84.476985 40.742061 -5.382006 0.124898 -6.415101 -1.496704 0.286075 -3.606115 -4.885307 0.121411 2.833913 10.281741 -12.466437 -12.500069 -1.430541 -0.048848 -1.283645 0.000000 0.000000 0.000000 -2.934584 24.333942 1.993028 -75.278574 31.338866 2.587587 -4.278356 -21.564014 -0.022891 -5.986810 5.046497 -0.267918 -0.086060 -0.141403 -0.000000 0.000000 0.000000 0.000000 0.000000 0.000000 0.000000 10.065416 -6.904228 1.466161 51.378682 11.047514 -1.349977 3.466678 30.931844 0.019232 2.453178 5.479084 0.115326 0.121645 -0.135476 -0.000000 0.000000 0.000000 0.000000 0.000000 0.000000 0.000000 
-21.033906 16.957960 -0.240690 23.654465 84.190602 37.288597 -5.444345 0.230201 -6.380887 -1.520056 0.396705 -3.599672 -4.906035 0.233908 2.833035 10.347481 -12.449224 -12.486015 -1.419375 -0.048164 -1.279639 0.000000 0.000000 0.000000 -2.910705 24.452890 1.973520 -75.237447 31.243883 1.781979 -4.328777 -21.013307 -0.023234 -5.984283 5.143642 -0.272721 -0.088669 -0.141039 -0.000000 0.000000 0.000000 0.000000 0.000000 0.000000 0.000000 10.069293 -6.830225 1.470405 51.322774 10.500801 -1.101075 3.493826 30.811543 0.019354 2.680060 5.406234 0.124724 0.120919 -0.131607 -0.000000 0.000000 0.000000 0.000000 0.000000 0.000000 0.000000 
-20.828039 16.970998 -0.251850 20.787587 83.928696 34.119148 -5.477467 0.315326 -6.308601 -1.537588 0.485396 -3.586909 -4.933658 0.325358 2.829476 10.425285 -12.422687 -12.474526 -1.417048 -0.048141 -1.276789 0.000000 0.000000 0.000000 -2.870091 24.537928 1.959307 -75.227339 31.066610 0.963593 -4.372410 -20.450306 -0.023364 -5.934242 5.215430 -0.273923 -0.091248 -0.140137 -0.000000 0.000000 0.000000 0.000000 0.000000 0.000000 0.000000 10.117184 -6.754432 1.473920 51.296288 9.948963 -0.901515 3.520564 30.683335 0.019420 2.885341 5.337717 0.133017 0.120291 -0.127807 -0.000000 0.000000 0.000000 0.000000 0.000000 0.000000 0.000000 
-20.623689 16.980361 -0.262791 18.349810 83.723643 31.365532 -5.491778 0.370346 -6.195148 -1.550606 0.543224 -3.567127 -4.967794 0.386780 2.823015 10.516644 -12.395165 -12.466232 -1.423948 -0.048796 -1.275261 0.000000 0.000000 0.000000 -2.807221 24.573535 1.951189 -75.245333 30.809458 0.144898 -4.409551 -19.886431 -0.023333 -5.847553 5.273019 -0.272522 -0.093768 -0.138738 -0.000000 0.000000 0.000000 0.000000 0.000000 0.000000 0.000000 10.214916 -6.691115 1.476373 51.300657 9.399303 -0.754040 3.546635 30.544467 0.019443 3.060987 5.282375 0.139810 0.119828 -0.124137 -0.000000 0.000000 0.000000 0.000000 0.000000 0.000000 0.000000 
-20.420991 16.986086 -0.273042 16.407946 83.601395 29.097451 -5.499666 0.387954 -6.038679 -1.561054 0.564021 -3.539931 -5.008235 0.411899 2.813106 10.622238 -12.371987 -12.461233 -1.440448 -0.050154 -1.275074 0.000000 0.000000 0.000000 -2.716822 24.546806 1.949646 -75.285564 30.474860 -0.656842 -4.440774 -19.332871 -0.023195 -5.737582 5.327453 -0.269820 -0.096201 -0.136897 -0.000000 0.000000 0.000000 0.000000 0.000000 0.000000 0.000000 10.366179 -6.649701 1.477473 51.341187 8.853987 -0.670215 3.571991 30.391752 0.019439 3.203718 5.245950 0.145502 0.119552 -0.120652 -0.000000 0.000000 0.000000 0.000000 0.000000 0.000000 0.000000 
-20.220432 16.988346 -0.282202 15.010962 83.579508 27.365035 -5.513893 0.363500 -5.837347 -1.571182 0.544301 -3.504689 -5.054559 0.397167 2.800320 10.742221 -12.357699 -12.460073 -1.466481 -0.052191 -1.276384 0.000000 0.000000 0.000000 -2.593242 24.454047 1.954831 -75.338412 30.058822 -1.413694 -4.466634 -18.796382 -0.023006 -5.617394 5.389075 -0.266817 -0.098515 -0.134670 -0.000000 0.000000 0.000000 0.000000 0.000000 0.000000 0.000000 10.572522 -6.637268 1.476512 51.425015 8.315056 -0.663984 3.596635 30.220298 0.019426 3.312525 5.231990 0.150194 0.119456 -0.117401 -0.000000 0.000000 0.000000 0.000000 0.000000 0.000000 0.000000 
-20.022053 16.987480 -0.289910 14.220657 83.667646 26.227278 -5.547160 0.294500 -5.587487 -1.583375 0.482765 -3.460072 -5.105869 0.341318 2.786570 10.876619 -12.360788 -12.464607 -1.501091 -0.054782 -1.279753 0.000000 0.000000 0.000000 -2.430466 24.298954 1.966455 -75.393518 29.551784 -2.099607 -4.488089 -18.278690 -0.022818 -5.500276 5.466545 -0.264612 -0.100704 -0.132093 -0.000000 0.000000 0.000000 0.000000 0.000000 0.000000 0.000000 10.833487 -6.664170 1.472652 51.560017 7.792594 -0.743455 3.620625 30.019325 0.019412 3.385707 5.242264 0.153786 0.119539 -0.114419 -0.000000 0.000000 0.000000 0.000000 0.000000 0.000000 0.000000 
-19.826115 16.983950 -0.296534 13.864164 83.851794 25.527675 -5.583540 0.190242 -5.306742 -1.595227 0.386887 -3.410945 -5.162719 0.251442 2.765985 11.015929 -12.368520 -12.468420 -1.544550 -0.058099 -1.283099 0.000000 0.000000 0.000000 -2.249304 24.066620 1.981832 -75.435104 28.984440 -2.694700 -4.504812 -17.818377 -0.022682 -5.400813 5.567451 -0.264208 -0.102653 -0.129279 -0.000000 0.000000 0.000000 0.000000 0.000000 0.000000 0.000000 11.132499 -6.712798 1.467006 51.759605 7.258749 -0.942174 3.644892 29.792470 0.019419 3.429631 5.276280 0.156677 0.119768 -0.111797 -0.000000 0.000000 0.000000 0.000000 0.000000 0.000000 0.000000 
-19.632592 16.978273 -0.301793 14.062716 84.128121 25.375392 -5.633561 0.050718 -4.985224 -1.608827 0.257871 -3.353606 -5.223049 0.129089 2.745235 11.161855 -12.399229 -12.477676 -1.593989 -0.061761 -1.288318 0.000000 0.000000 0.000000 -2.039458 23.783420 2.000396 -75.452661 28.325759 -3.172644 -4.518214 -17.398700 -0.022622 -5.328051 5.693220 -0.266104 -0.104412 -0.126197 -0.000000 0.000000 0.000000 0.000000 0.000000 0.000000 0.000000 11.468202 -6.802972 1.457963 52.027740 6.745930 -1.246297 3.668965 29.519131 0.019432 3.436024 5.332949 0.158569 0.120171 -0.109522 -0.000000 0.000000 0.000000 0.000000 0.000000 0.000000 0.000000 
-19.441144 16.971102 -0.306186 14.682838 84.470549 25.645867 -5.678847 -0.112805 -4.635843 -1.621446 0.105180 -3.291582 -5.286840 -0.016470 2.720666 11.305100 -12.439637 -12.487276 -1.648849 -0.065836 -1.293800 0.000000 0.000000 0.000000 -1.818987 23.448940 2.019907 -75.432473 27.593930 -3.523910 -4.528425 -17.044178 -0.022651 -5.291542 5.841609 -0.270699 -0.105933 -0.122893 -0.000000 0.000000 0.000000 0.000000 0.000000 0.000000 0.000000 11.821782 -6.915379 1.446102 52.377303 6.230359 -1.685874 3.693107 29.203121 0.019456 3.411218 5.405623 0.159361 0.120678 -0.107646 -0.000000 0.000000 0.000000 0.000000 0.000000 0.000000 0.000000 
-19.251494 16.963049 -0.310029 15.671567 84.853657 26.287127 -5.710434 -0.292153 -4.264215 -1.631675 -0.063707 -3.224289 -5.351707 -0.177594 2.699313 11.445544 -12.516880 -12.504137 -1.704983 -0.069852 -1.301412 0.000000 0.000000 0.000000 -1.595002 23.091976 2.036658 -75.362150 26.770106 -3.739264 -4.536063 -16.751078 -0.022753 -5.293823 6.005051 -0.277994 -0.107251 -0.119331 -0.000000 0.000000 0.000000 0.000000 0.000000 0.000000 0.000000 12.186560 -7.076737 1.431248 52.801053 5.758676 -2.210127 3.717020 28.820082 0.019475 3.333484 5.497516 0.158152 0.121460 -0.106152 -0.000000 0.000000 0.000000 0.000000 0.000000 0.000000 0.000000 
-19.063405 16.954844 -0.314023 16.777636 85.239323 27.059161 -5.703848 -0.472460 -3.889468 -1.635696 -0.236263 -3.158016 -5.418388 -0.342241 2.672570 11.568876 -12.590722 -12.516533 -1.763552 -0.074143 -1.307630 0.000000 0.000000 0.000000 -1.390466 22.705865 2.049842 -75.229872 25.888478 -3.815990 -4.540530 -16.551477 -0.022895 -5.334762 6.169996 -0.287586 -0.108331 -0.115563 -0.000000 0.000000 0.000000 0.000000 0.000000 0.000000 0.000000 12.535191 -7.236179 1.414352 53.319447 5.265407 -2.886890 3.740349 28.396252 0.019482 3.221900 5.595751 0.155244 0.122294 -0.105122 -0.000000 0.000000 0.000000 0.000000 0.000000 0.000000 0.000000 
-18.876320 16.947073 -0.318497 17.843054 85.597756 27.807820 -5.651522 -0.644566 -3.522741 -1.632206 -0.404037 -3.095148 -5.485501 -0.502189 2.640881 11.669539 -12.653528 -12.522523 -1.822992 -0.078612 -1.311817 0.000000 0.000000 0.000000 -1.213012 22.306053 2.058381 -75.028164 24.951224 -3.758828 -4.542056 -16.449178 -0.023023 -5.407328 6.318872 -0.298177 -0.109234 -0.111562 -0.000000 0.000000 0.000000 0.000000 0.000000 0.000000 0.000000 12.852819 -7.381494 1.395496 53.937275 4.741474 -3.721009 3.762105 27.935959 0.019463 3.075616 5.696214 0.150535 0.123126 -0.104566 -0.000000 0.000000 0.000000 0.000000 0.000000 0.000000 0.000000 
-18.689848 16.940181 -0.323634 18.723738 85.905936 28.392311 -5.554563 -0.802261 -3.173672 -1.621096 -0.560816 -3.036157 -5.550650 -0.651313 2.610547 11.749889 -12.727624 -12.527367 -1.879774 -0.082867 -1.315349 0.000000 0.000000 0.000000 -1.064478 21.915575 2.059490 -74.753525 23.947601 -3.597374 -4.541450 -16.437004 -0.023078 -5.498857 6.435252 -0.308565 -0.110089 -0.107258 -0.000000 0.000000 0.000000 0.000000 0.000000 0.000000 0.000000 13.136656 -7.535531 1.374829 54.641776 4.223130 -4.650959 3.781142 27.426831 0.019394 2.873470 5.801183 0.142726 0.124094 -0.104412 -0.000000 0.000000 0.000000 0.000000 0.000000 0.000000 0.000000 
-18.503397 16.934614 -0.329634 19.178585 86.141466 28.580423 -5.409893 -0.938812 -2.856914 -1.601384 -0.700349 -2.983813 -5.612697 -0.783674 2.582469 11.807601 -12.810810 -12.529851 -1.932505 -0.086821 -1.317733 0.000000 0.000000 0.000000 -0.950587 21.544872 2.051755 -74.402017 22.886302 -3.346239 -4.538313 -16.520253 -0.022989 -5.591328 6.499237 -0.316647 -0.110965 -0.102653 -0.000000 0.000000 0.000000 0.000000 0.000000 0.000000 0.000000 13.378049 -7.693841 1.352627 55.429247 3.706872 -5.658488 3.796592 26.873143 0.019267 2.609762 5.914780 0.131518 0.125200 -0.104637 -0.000000 0.000000 0.000000 0.000000 0.000000 0.000000 0.000000 
-18.316394 16.930641 -0.336412 19.060789 86.294413 28.231036 -5.221411 -1.051950 -2.582096 -1.573239 -0.820198 -2.938790 -5.670310 -0.896927 2.561087 11.846826 -12.920564 -12.533623 -1.978940 -0.090224 -1.319881 0.000000 0.000000 0.000000 -0.870461 21.205781 2.033169 -73.973655 21.768552 -3.039838 -4.532677 -16.696968 -0.022698 -5.663553 6.497246 -0.320424 -0.111972 -0.097731 -0.000000 0.000000 0.000000 0.000000 0.000000 0.000000 0.000000 13.579556 -7.875923 1.329010 56.284275 3.216119 -6.682121 3.807793 26.269304 0.019069 2.269501 6.042725 0.116009 0.126549 -0.105123 -0.000000 0.000000 0.000000 0.000000 0.000000 0.000000 0.000000 
